<svg xmlns="http://www.w3.org/2000/svg" xmlns:xlink="http://www.w3.org/1999/xlink" width="507px" height="500px" viewBox="106.417 -0.27716 344.114 339.437" preserveAspectRatio="xMidYMid meet" ><rect id="svgEditorBackground" x="0" y="0" width="730" height="500" style="fill:none; stroke: none;"/><path d="M205,325c-19,0.39999999999997726,-28,3.3999999999999773,-48,1c-5.400000000000006,-2.3000000000000114,-9.800000000000011,-7.5,-12,-13c-4.099999999999994,-59.19999999999999,0.5999999999999943,-68,-3,-127c-1.4000000000000057,-4.900000000000006,-7,-8,-8,-13c-0.19999999999998863,-16.69999999999999,0.9000000000000057,-25.099999999999994,6,-41c3.4000000000000057,-6,8.900000000000006,-11.400000000000006,16,-13c3.1999999999999886,12.199999999999989,-3.3000000000000114,19.69999999999999,0,32c1.5999999999999943,1.5999999999999943,4.699999999999989,0.5,7,0c3.1999999999999886,-0.6999999999999886,7.300000000000011,-1.1999999999999886,9,-4c2.5,-8,-4.599999999999994,-15,-2,-23c5,-4.700000000000003,12.300000000000011,-6.700000000000003,19,-5c4.400000000000006,8.900000000000006,-1,17.30000000000001,3,26c5.900000000000006,-10.900000000000006,1.6999999999999886,-20,8,-31c3.4000000000000057,-2.200000000000003,9.199999999999989,-0.9000000000000057,12,2c6.699999999999989,23.80000000000001,7.400000000000006,31.69999999999999,8,56c-1.4000000000000057,5,-8.300000000000011,7.099999999999994,-10,12c-2.3000000000000114,12.300000000000011,-2.5999999999999943,20.400000000000006,1,33c4.300000000000011,5.099999999999994,11.599999999999994,6.099999999999994,18,7c14.599999999999994,0.8000000000000114,23,1.5,38,-3c5.199999999999989,-13.800000000000011,4.300000000000011,-22.69999999999999,5,-36c-2,-34.19999999999999,-0.5,-43,-7,-78c-15.099999999999994,-4.099999999999994,-22.900000000000006,2.0999999999999943,-38,-2c-3.3000000000000114,-11.799999999999997,-2.4000000000000057,-19.900000000000006,0,-31c17,-28.299999999999997,21.19999999999999,-35.5,43,-61c3.6999999999999886,-1.5999999999999996,8.300000000000011,0.3000000000000007,12,2c7.800000000000011,3.5,14.600000000000023,9.399999999999999,20,16c16.899999999999977,28,22.19999999999999,34.8,35,66c-9.399999999999977,4.400000000000006,-17.80000000000001,-1,-27,3c-2.8999999999999773,1.9000000000000057,-4.199999999999989,5.700000000000003,-5,9c-1.8000000000000114,25,-0.5,34.400000000000006,1,59c2.8000000000000114,15.5,2.8000000000000114,24.5,10,40c12.800000000000011,4.699999999999989,20.30000000000001,5.699999999999989,34,4c5.899999999999977,-20.900000000000006,6.699999999999989,-28.400000000000006,6,-50c-3.1000000000000227,-5.199999999999989,-12.800000000000011,-3,-16,-8c-3.5,-8.5,-3.8999999999999773,-16.19999999999999,-1,-25c4.899999999999977,-5,12.100000000000023,-7.299999999999997,19,-6c3.5,1.7000000000000028,0.8000000000000114,8.800000000000011,4,11c9.300000000000011,2.9000000000000057,16.899999999999977,2.6999999999999886,26,-1c3.6999999999999886,-10.099999999999994,-2.5,-18,1,-28c9.399999999999977,6,9.5,16,19,22c3.8999999999999773,0.9000000000000057,8.899999999999977,-1.5999999999999943,11,-5c2.8999999999999773,-4.900000000000006,-4,-12,-1,-17c4.699999999999989,-2.200000000000003,12,-0.20000000000000284,15,4c2.5,11.5,1.8000000000000114,19.19999999999999,-2,30c-18.5,14.199999999999989,-28.399999999999977,12.800000000000011,-47,27c-3.1000000000000227,6.099999999999994,1.8000000000000114,13.599999999999994,0,20c-3.6999999999999886,10.400000000000006,-3.8000000000000114,15.400000000000006,-6,26c0,4.199999999999989,5,0.9000000000000057,11,6c2,27.900000000000006,1.5,35.5,-3,63c-2.5,3.3999999999999773,-8.600000000000023,1.5,-12,4c-7.100000000000023,6,-7.600000000000023,16,-15,22c-21.80000000000001,7.699999999999989,-31.100000000000023,8,-53,12c-48.60000000000002,2.6999999999999886,-58.5,2.1999999999999886,-107,4" style="stroke:black;fill:#fff3d4;stroke-width:1px;" id="e1_freepath"/><line id="e5_line" x1="146" y1="186" x2="202" y2="185" style="stroke:black;fill:none;stroke-width:1px;"/><line id="e6_line" x1="358" y1="165" x2="380" y2="165" style="stroke:black;fill:none;stroke-width:1px;"/><line id="e7_line" x1="269" y1="109" x2="299" y2="109" style="stroke:black;fill:none;stroke-width:1px;"/><path d="M187,222c-0.6999999999999886,-5.300000000000011,1.1999999999999886,-11.699999999999989,-2,-16c-2.4000000000000057,-3.1999999999999886,-7.099999999999994,-4.099999999999994,-11,-5c-2.3000000000000114,-0.5,-5.199999999999989,-1.5,-7,0c-4.300000000000011,7.400000000000006,-5.300000000000011,14.800000000000011,-3,23c8.099999999999994,2.5999999999999943,16.5,-1.4000000000000057,23,-2" style="stroke:black;fill:none;stroke-width:1px;" id="e8_freepath"/><g id="g_e13_svg"/><path d="M370,210c0,-3.6999999999999886,2.1000000000000227,-8,0,-11c-2.1999999999999886,-3.1999999999999886,-7.800000000000011,-6.199999999999989,-11,-4c-3.3000000000000114,4.300000000000011,-3.3000000000000114,11.699999999999989,0,16c2.5,2.1999999999999886,10,-1,10,-1" style="stroke:black;fill:none;stroke-width:1px;" id="e15_freepath"/><path d="M291,138c-0.30000000000001137,-4.300000000000011,1.8000000000000114,-9.699999999999989,-1,-13c-2.8999999999999773,-3.4000000000000057,-9.399999999999977,-5.599999999999994,-13,-3c-3.1000000000000227,4,-2.6000000000000227,11.5,1,15c3.3999999999999773,3.1999999999999886,12,0,14,0" style="stroke:black;fill:none;stroke-width:1px;" id="e17_freepath"/><path d="M319,315c-3.8000000000000114,-15.600000000000023,-3.5,-25.30000000000001,-10,-41c-3,-4.600000000000023,-7.899999999999977,-8.100000000000023,-13,-10c-7.199999999999989,-2.6000000000000227,-15.600000000000023,-3.3000000000000114,-23,-1c-7.800000000000011,2.8000000000000114,-14.5,8.100000000000023,-19,15c-6.099999999999994,15.800000000000011,-5.599999999999994,25.399999999999977,-9,41" style="stroke:black;fill:none;stroke-width:1px;" id="e19_freepath"/></svg>